<svg width="159" height="305" viewBox="0 0 159 305" fill="none" xmlns="http://www.w3.org/2000/svg">
    <path fill-rule="evenodd" clip-rule="evenodd" d="M47.9766 17.5741C47.9766 8.86767 54.552 1.55416 63.2322 0.878367C69.2624 0.408883 75.8441 0 80.4766 0C85.1091 0 91.6907 0.408883 97.721 0.878367C106.401 1.55416 112.977 8.86767 112.977 17.5741V25.9331C112.977 25.9331 111.214 28 101.935 28C94.3326 28 85.1992 28 80.4766 28C75.9189 28 70.5693 28 59.863 28C50.0264 28 47.9766 25.9331 47.9766 25.9331V17.5741Z" fill="#334155"/>
    <path fill-rule="evenodd" clip-rule="evenodd" d="M0 44.7509C0 38.0565 3.91062 31.9941 10.1033 29.4513C26.7698 22.6079 60.1053 10 79.4885 10C98.8716 10 132.207 22.6079 148.874 29.4513C155.066 31.9941 158.977 38.0565 158.977 44.7509V283.224C158.977 283.224 154.666 305 131.972 305C113.378 305 91.039 305 79.4885 305C68.3413 305 55.2572 305 29.0719 305C5.0135 305 0 283.224 0 283.224V44.7509Z" fill="#475569"/>
    <path fill-rule="evenodd" clip-rule="evenodd" d="M0 79.3322C0 72.3387 4.28168 66.0615 10.8685 63.7112C27.7719 57.6797 60.3976 47 79.4885 47C98.5794 47 131.205 57.6797 148.108 63.7112C154.695 66.0615 158.977 72.3387 158.977 79.3322V285.579C158.977 285.579 154.666 304.594 131.972 304.594C113.378 304.594 91.039 304.594 79.4885 304.594C68.3413 304.594 55.2572 304.594 29.0719 304.594C5.0135 304.594 0 285.579 0 285.579V79.3322Z" fill="url(#paint0_linear_0_2018)"/>
    <defs>
    <linearGradient id="paint0_linear_0_2018" x1="20.4861" y1="47" x2="20.4861" y2="238.206" gradientUnits="userSpaceOnUse">
    <stop stop-color="#4AB0A8"/>
    <stop offset="1" stop-color="#A9E5BB"/>
    </linearGradient>
    </defs>
</svg>